<svg width="82" height="32" viewBox="0 0 82 32" xmlns="http://www.w3.org/2000/svg"><path d="M23.571 10.677c-2.113-1.84-5.072-2.903-8.51-2.903C6.096 7.774 0 14.67 0 14.67l1.718 2.718s.95.08.447-1.522c.435-.818 1.285-1.92 2.946-3.19v18.102c-.716.201-1.662.58-1.017 1.223h4.935c.651-.65-.375-1.04-1-1.223v-4.27s3.384 1.323 7.031 1.323c3.205 0 6.121-.95 8.29-2.666 2.169-1.707 3.567-4.256 3.558-7.169a9.595 9.595 0 00-3.337-7.318zm-2.615 13.057c-1.5 1.476-3.681 2.41-6.197 2.408-2.807.001-5.17-.54-6.73-1.306V11.254c1.712-1.212 4.488-1.959 6.73-1.954 2.724.002 4.863 1.028 6.309 2.585 1.444 1.566 2.232 3.646 2.239 6.064-.009 2.356-.851 4.297-2.351 5.785zm10.317-15.96c.446 0 .809.361.809.806v18.514a.807.807 0 01-.809.806h-1.005a.807.807 0 01-.808-.806V8.58c0-.445.362-.806.808-.806h1.005zm26.268 0c.446 0 .808.361.808.806v18.514a.807.807 0 01-.808.806h-1.005a.807.807 0 01-.808-.806V8.58c0-.445.362-.806.808-.806h1.005zm23.63 0c.69 0 1.06.305.672 1.082-.387.776-9.335 18.294-9.35 18.325-.237.445-.668.719-1.132.719-.466 0-.897-.274-1.132-.718 0 0-8.964-17.55-9.353-18.326-.387-.777-.016-1.082.672-1.082h.935c.735 0 .938.095 1.27.756.328.659 7.607 15.043 7.607 15.043S78.639 9.188 78.968 8.53c.331-.661.534-.756 1.269-.756h.935zM49.605 27.227L43.9 19.972s-5.523 6.772-5.902 7.255c-.38.482-.652.673-1.387.673h-1.507c-.948 0-.614-.43-.347-.783.671-.88 7.476-9.256 7.476-9.256s-6.848-8.424-7.518-9.304c-.268-.353-.602-.783.346-.783h1.507c.735 0 1.008.19 1.387.673.38.482 5.945 7.302 5.945 7.302s5.561-6.82 5.94-7.302c.38-.483.653-.673 1.388-.673h1.506c.949 0 .615.43.347.783-.67.88-7.514 9.304-7.514 9.304s6.606 8.376 7.276 9.256c.268.353.602.783-.347.783H50.99c-.734 0-1.007-.19-1.386-.673zM30.768 0c.599 0 1.098.2 1.497.598.4.398.6.896.6 1.493 0 .598-.2 1.096-.6 1.494-.399.398-.898.598-1.497.598-.6 0-1.099-.2-1.498-.598-.4-.398-.6-.896-.6-1.494 0-.597.2-1.095.6-1.493.4-.399.898-.598 1.498-.598zm26.268 0c.6 0 1.098.2 1.498.598.4.398.6.896.6 1.493 0 .598-.2 1.096-.6 1.494-.4.398-.899.598-1.498.598s-1.098-.2-1.497-.598c-.4-.398-.6-.896-.6-1.494 0-.597.2-1.095.6-1.493.399-.399.898-.598 1.497-.598z" fill="#FFF" fill-rule="evenodd"/></svg>